<svg width="1440" height="1024" viewBox="0 0 1440 1024" fill="none" xmlns="http://www.w3.org/2000/svg">
<rect width="1440" height="660" fill="url(#paint0_linear_2_26)"/>
<path d="M-6 624.639C-6 624.639 741.44 623.041 745.662 621.141C749.884 619.24 757.752 622.091 761.379 621.141C765.005 620.191 772.259 605.946 777.703 607.843C783.148 609.741 789.188 614.953 798.254 620.421C807.32 625.889 817.592 635.703 823.636 633.182C829.68 630.661 834.516 620.121 841.769 620.648C849.023 621.176 861.112 625.895 866.552 627.79C871.991 629.684 881.663 637.286 890.126 638.236C898.589 639.187 905.841 642.985 916.721 641.084C927.601 639.184 941.805 629.565 949.966 624.639C958.127 619.713 970.214 616.859 979.887 615.918C989.559 614.976 999.531 622.566 1006.48 622.566C1013.43 622.566 1017.97 622.091 1024.31 618.777C1030.66 615.463 1035.8 611.181 1043.05 611.656C1050.3 612.131 1054.84 613.079 1061.79 617.827C1068.74 622.575 1078.11 620.202 1085.96 616.404C1093.82 612.606 1101.68 609.281 1106.22 609.744C1110.75 610.207 1185.4 566.056 1193.86 567.015C1202.32 567.974 1207.46 575.089 1213.81 576.515C1220.15 577.94 1224.99 570.805 1229.52 569.854C1234.04 568.904 1246.74 572.23 1248.86 572.23C1250.97 572.23 1254.9 571.28 1259.14 573.177C1263.37 575.075 1271.53 588.85 1278.78 591.698C1286.03 594.546 1290.26 595.971 1296.31 596.922C1302.35 597.872 1305.07 601.705 1311.42 604.299C1317.77 606.893 1329.86 623.041 1340.73 628.265C1351.6 633.488 1373.37 636.811 1381.23 635.386C1389.08 633.96 1426.56 628.265 1431.09 628.265C1434.08 628.317 1437.06 628.792 1440 629.684V805L-6 758.363V624.639Z" fill="#AA0D1D"/>
<path d="M-126 652.03C-126 652.03 998.456 641.68 1009.52 640.739C1020.58 639.797 1034.2 646.393 1053.78 646.393C1073.37 646.393 1073.36 649.974 1092.94 640.655C1112.52 631.336 1132.95 630.398 1143.16 633.219C1153.38 636.04 1186.57 637.461 1200.2 641.929C1213.82 646.396 1229.14 654.86 1238.5 652.036C1247.86 649.212 1255.52 636.996 1273.4 631.821C1291.27 626.647 1315.11 605.938 1327.03 601.234C1338.94 596.53 1353.41 589.943 1365.33 601.234C1377.25 612.525 1396.83 615.35 1402.78 618.171C1408.74 620.992 1415.55 631.345 1424.07 632.286C1432.58 633.228 1440 633.225 1440 633.225V764L-130.256 735.772L-126 652.03Z" fill="#E83311"/>
<path d="M-33 667.568C-33 667.568 490 667.568 547 667.568C593.824 655.246 624.695 649.757 643.422 643.125C662.15 636.493 666.414 616.585 679.177 615.637C691.939 614.688 725.159 619.418 741.321 615.637C757.483 611.855 769.41 604.263 769.41 604.263C769.41 604.263 783.881 601.421 790.692 604.263C797.503 607.105 874.119 641.228 883.483 650.717C892.847 660.205 895.402 666.424 903.078 667.568C910.754 668.711 937.98 662.623 949.896 667.568C961.813 672.513 1000.97 700.949 1022.27 704.742C1043.56 708.535 1088.67 700.961 1124.42 704.742C1160.18 708.524 1177.2 727.489 1205.29 726.541C1233.39 725.593 1277.66 718.009 1292.12 715.167C1306.58 712.325 1339.79 706.636 1350.01 713.271C1360.23 719.906 1391.72 722.818 1401.94 726.573C1412.15 730.328 1440 731.279 1440 731.279V1081H-28L-33 667.568Z" fill="#0F162A"/>
<defs>
<linearGradient id="paint0_linear_2_26" x1="720" y1="0" x2="720" y2="660" gradientUnits="userSpaceOnUse">
<stop offset="0.19528" stop-color="#0F1629"/>
<stop offset="0.580712" stop-color="#242E5E"/>
<stop offset="0.877599" stop-color="#EB3312"/>
<stop offset="0.966144" stop-color="#F68D0D"/>
</linearGradient>
</defs>
</svg>
