<svg width="1440" height="338" viewBox="0 0 1440 338" fill="none" xmlns="http://www.w3.org/2000/svg">
<g clip-path="url(#clip0_3_7)">
<rect width="1440" height="338" fill="white"/>
<g clip-path="url(#clip1_3_7)">
<path d="M1440 0H-0.000610352V292H1440V0Z" fill="url(#paint0_linear_3_7)"/>
<path d="M-14 276.205C-14 276.205 1131.11 275.498 1132.98 274.658C1134.84 273.818 1138.32 275.078 1139.93 274.658C1141.53 274.238 1144.74 267.939 1147.14 268.778C1149.55 269.617 1152.22 271.922 1156.23 274.34C1160.24 276.758 1164.78 281.097 1167.45 279.982C1170.13 278.868 1172.27 274.207 1175.47 274.44C1178.68 274.674 1184.03 276.76 1186.43 277.598C1188.84 278.436 1193.11 281.797 1196.86 282.217C1200.6 282.638 1203.8 284.317 1208.62 283.477C1213.43 282.636 1219.71 278.383 1223.32 276.205C1226.92 274.027 1232.27 272.765 1236.55 272.348C1240.82 271.932 1245.23 275.288 1248.31 275.288C1251.38 275.288 1253.38 275.078 1256.19 273.613C1259 272.147 1261.27 270.254 1264.48 270.464C1267.68 270.674 1269.69 271.093 1272.76 273.193C1275.83 275.292 1279.98 274.243 1283.45 272.564C1286.92 270.884 1290.4 269.414 1292.41 269.618C1294.41 269.823 1327.42 250.301 1331.16 250.725C1334.9 251.149 1337.18 254.295 1339.98 254.925C1342.79 255.555 1344.93 252.4 1346.93 251.98C1348.93 251.56 1354.55 253.03 1355.48 253.03C1356.42 253.03 1358.15 252.61 1360.03 253.449C1361.9 254.288 1365.5 260.38 1368.71 261.639C1371.92 262.898 1373.79 263.528 1376.46 263.949C1379.13 264.369 1380.34 266.064 1383.14 267.211C1385.95 268.358 1391.3 275.498 1396.1 277.808C1400.91 280.118 1410.54 281.587 1414.01 280.957C1417.49 280.327 1434.06 277.808 1436.06 277.808C1437.38 277.831 1438.7 278.041 1440 278.436V355.957L-14 335.335V276.205Z" fill="#AA0D1D"/>
<path d="M-9.11868 288.317C-9.11868 288.317 1244.76 283.74 1249.65 283.324C1254.54 282.908 1260.56 285.824 1269.22 285.824C1277.88 285.824 1277.88 287.408 1286.54 283.287C1295.19 279.166 1304.23 278.751 1308.74 279.999C1313.26 281.246 1327.94 281.875 1333.96 283.85C1339.99 285.825 1346.76 289.568 1350.9 288.319C1355.04 287.07 1358.43 281.669 1366.33 279.381C1374.24 277.093 1384.78 267.936 1390.04 265.856C1395.31 263.776 1401.71 260.863 1406.98 265.856C1412.25 270.848 1420.91 272.097 1423.54 273.345C1426.18 274.592 1429.19 279.17 1432.95 279.586C1436.72 280.003 1440 280.001 1440 280.001V337.828L-11.0005 325.346L-9.11868 288.317Z" fill="#E83311"/>
<path d="M-3.21094 295.187C-3.21094 295.187 1019.93 295.187 1045.13 295.187C1065.84 289.739 1079.49 287.312 1087.77 284.379C1096.05 281.446 1097.93 272.643 1103.58 272.224C1109.22 271.805 1123.91 273.896 1131.06 272.224C1138.2 270.552 1143.48 267.195 1143.48 267.195C1143.48 267.195 1149.88 265.938 1152.89 267.195C1155.9 268.452 1189.78 283.54 1193.92 287.736C1198.06 291.932 1199.19 294.682 1202.58 295.187C1205.98 295.693 1218.02 293.001 1223.29 295.187C1228.55 297.374 1245.87 309.948 1255.29 311.625C1264.7 313.302 1284.65 309.953 1300.46 311.625C1316.27 313.297 1323.79 321.683 1336.22 321.264C1348.64 320.845 1368.22 317.492 1374.61 316.235C1381 314.978 1395.69 312.462 1400.21 315.396C1404.73 318.33 1418.65 319.618 1423.17 321.278C1427.69 322.939 1440 323.359 1440 323.359V478H-1.00002L-3.21094 295.187Z" fill="#0F162A"/>
</g>
</g>
<defs>
<linearGradient id="paint0_linear_3_7" x1="719.999" y1="0" x2="719.999" y2="292" gradientUnits="userSpaceOnUse">
<stop offset="0.19528" stop-color="#0F1629"/>
<stop offset="0.580712" stop-color="#242E5E"/>
<stop offset="0.877599" stop-color="#EB3312"/>
<stop offset="0.966144" stop-color="#F68D0D"/>
</linearGradient>
<clipPath id="clip0_3_7">
<rect width="1440" height="338" fill="white"/>
</clipPath>
<clipPath id="clip1_3_7">
<rect width="1440" height="478" fill="white"/>
</clipPath>
</defs>
</svg>
