<svg width="195" height="44" viewBox="0 0 195 44" fill="none" xmlns="http://www.w3.org/2000/svg">
<path d="M83.6395 36.2361V7.13461H101.577V11.7364H88.5615V19.4508H100.355V23.9199H88.5615V31.6344H101.577V36.2361H83.6395Z" fill="black"/>
<path d="M115.122 36.2363H110.365L102.271 16.2395H107.524L112.809 30.5085L117.963 16.2395H122.952L115.122 36.2363Z" fill="black"/>
<path d="M125.164 36.2363V16.2395H129.723V18.7887C130.88 16.7362 133.357 15.677 135.636 15.677C138.246 15.677 140.558 16.8688 141.615 19.2196C143.168 16.6045 145.513 15.677 148.09 15.677C151.69 15.677 155.127 17.9619 155.127 23.2588V36.2373H150.535V24.0527C150.535 21.702 149.346 19.9476 146.67 19.9476C144.159 19.9476 142.541 21.9343 142.541 24.3838V36.2363H137.882V24.0527C137.882 21.7678 136.726 19.9476 134.017 19.9476C131.474 19.9476 129.888 21.8346 129.888 24.3838V36.2363H125.164Z" fill="black"/>
<path d="M178.02 26.2378C178.02 32.3954 173.627 36.8655 167.647 36.8655C161.701 36.8655 157.34 32.3964 157.34 26.2378C157.34 20.1131 161.734 15.643 167.647 15.643C173.627 15.643 178.02 20.1131 178.02 26.2378ZM173.231 26.2378C173.231 22.0998 170.621 19.9476 167.648 19.9476C164.741 19.9476 162.065 22.0669 162.065 26.2378C162.065 30.4087 164.741 32.5949 167.648 32.5949C170.587 32.5939 173.231 30.4087 173.231 26.2378Z" fill="black"/>
<path d="M183.339 29.6807C183.504 31.5018 184.858 33.0906 187.402 33.0906C189.384 33.0906 190.376 32.0314 190.376 30.8057C190.376 29.7465 189.649 28.9187 188.03 28.5876L185.09 27.9254C181.555 27.1305 179.738 24.8465 179.738 22.0989C179.738 18.6221 182.943 15.643 187.072 15.643C192.654 15.643 194.439 19.2514 194.769 21.2381L190.772 22.3971C190.606 21.2381 189.748 19.417 187.072 19.417C185.387 19.417 184.198 20.4762 184.198 21.7019C184.198 22.7611 184.991 23.556 186.213 23.7874L189.252 24.4167C193.018 25.2445 195 27.5284 195 30.4755C195 33.5214 192.556 36.8655 187.468 36.8655C181.687 36.8655 179.474 33.0916 179.242 30.8396L183.339 29.6807Z" fill="black"/>
<path d="M27.5337 1.4669C15.3005 6.17322 14.1799 18.2261 10.6722 23.8551C7.12289 29.5509 -1.00837 32.6936 0.103553 35.5962C1.21548 38.4988 9.35641 35.3812 15.7971 37.2334C22.1614 39.0632 31.0414 47.2695 43.2745 42.5632C49.5065 40.166 54.019 35.2312 56.0941 29.3863C56.3172 28.7589 55.8999 28.088 55.2381 28.026C54.8266 27.9873 54.4315 28.2032 54.246 28.573C52.369 32.3199 49.1491 35.4055 44.9352 37.0262C37.9786 39.7022 30.3671 37.6013 25.6924 32.3315C24.6307 31.1348 23.7226 29.7726 23.0058 28.2671C22.8087 27.8527 22.6213 27.4315 22.4551 26.9959C22.288 26.5602 22.146 26.1216 22.0156 25.6811C25.6924 23.9635 29.9353 22.1443 34.7452 20.2941C39.4615 18.4797 43.7537 17.0081 47.5754 15.8308C50.1605 15.035 52.5303 14.3727 54.6701 13.8315C54.8247 13.7928 54.9773 13.7541 55.129 13.7163C55.4526 13.6359 55.7849 13.8092 55.9047 14.121L55.9066 14.1268C55.9772 14.3117 56.038 14.4976 56.1037 14.6835C56.5268 15.8831 56.8437 17.0952 57.0533 18.3103C57.1451 18.8418 57.7248 19.1313 58.2001 18.8757C59.9563 17.9308 61.5629 17.0091 62.9984 16.1222C68.3475 12.8207 71.3133 10.0208 70.7046 8.43392C70.097 6.84611 66.0241 6.7551 59.8443 7.88787C57.8803 8.24803 55.7028 8.73212 53.3563 9.33142C52.9505 9.43502 52.5399 9.54248 52.1245 9.65286C50.1499 10.1776 48.0671 10.7788 45.8983 11.4517C41.8651 12.7036 37.5381 14.2033 33.0711 15.9218C28.8919 17.53 24.9311 19.1972 21.2988 20.8586C21.2543 13.8073 25.5078 7.1414 32.4644 4.46535C36.6773 2.84462 41.1309 2.97726 45.0279 4.50408C45.4124 4.65512 45.85 4.55055 46.1311 4.24558C46.5813 3.75664 46.4432 2.97823 45.8587 2.66067C40.414 -0.289375 33.7657 -0.93031 27.5337 1.4669Z" fill="black"/>
</svg>
