<svg width="71" height="71" viewBox="0 0 71 71" fill="none" xmlns="http://www.w3.org/2000/svg">
<path d="M25.1458 47.3333C27.5965 47.3333 29.5833 45.3466 29.5833 42.8958C29.5833 40.4451 27.5965 38.4583 25.1458 38.4583C22.695 38.4583 20.7083 40.4451 20.7083 42.8958C20.7083 45.3466 22.695 47.3333 25.1458 47.3333Z" fill="black"/>
<path d="M45.8542 47.3333C48.305 47.3333 50.2917 45.3466 50.2917 42.8958C50.2917 40.4451 48.305 38.4583 45.8542 38.4583C43.4035 38.4583 41.4167 40.4451 41.4167 42.8958C41.4167 45.3466 43.4035 47.3333 45.8542 47.3333Z" fill="black"/>
<path d="M55.8237 9.88082C54.9329 8.75065 53.8194 7.81559 52.5523 7.13367C51.2851 6.45174 49.8913 6.0375 48.4574 5.91666H22.5424C21.0976 6.02281 19.6917 6.43355 18.417 7.12188C17.1423 7.81021 16.0278 8.76055 15.1466 9.91041C13.1789 12.0683 12.0096 14.835 11.8333 17.75V53.25C11.8333 54.0346 12.1449 54.7871 12.6997 55.3419C13.2545 55.8966 14.007 56.2083 14.7916 56.2083H20.7083L14.7916 65.0833H21.6549L23.6666 62.125H47.3332L49.3449 65.0833H56.2082L50.2916 56.2083H56.2082C56.9928 56.2083 57.7453 55.8966 58.3001 55.3419C58.8549 54.7871 59.1666 54.0346 59.1666 53.25V17.75C59.0311 14.8111 57.8448 12.0186 55.8237 9.88082V9.88082ZM22.5424 11.8333H48.3391C49.5222 12.1205 50.5683 12.8109 51.2974 13.7858C51.5655 14.1047 51.8125 14.4407 52.037 14.7917H18.9037C19.1173 14.4242 19.3649 14.0775 19.6433 13.7562C20.3407 12.781 21.3727 12.0965 22.5424 11.8333ZM17.7499 23.6667V20.7083H53.2499V29.5833H17.7499V23.6667ZM53.2499 50.2917H17.7499V35.5H53.2499V50.2917Z" fill="black"/>
</svg>
