<svg width="204" height="44" viewBox="0 0 204 44" fill="none" xmlns="http://www.w3.org/2000/svg">
<path d="M0 4C0 1.79086 1.79086 0 4 0H200C202.209 0 204 1.79086 204 4V40C204 42.2091 202.209 44 200 44H4C1.79086 44 0 42.2091 0 40V4Z" fill="black"/>
<path d="M50.1667 22H52V25.6667H50.1667V22Z" fill="white"/>
<path d="M53.8333 17.4167V15.5833C53.8333 14.5722 53.0111 13.75 52 13.75H40.0833C38.5672 13.75 37.3333 14.9838 37.3333 16.5V27.5C37.3333 29.5176 38.9778 30.25 40.0833 30.25H53.8333C54.8444 30.25 55.6667 29.4278 55.6667 28.4167V19.25C55.6667 18.2389 54.8444 17.4167 53.8333 17.4167ZM40.0833 15.5833H52V17.4167H40.0833C39.8473 17.4061 39.6245 17.3049 39.4612 17.1342C39.2979 16.9634 39.2068 16.7363 39.2068 16.5C39.2068 16.2637 39.2979 16.0366 39.4612 15.8658C39.6245 15.6951 39.8473 15.5939 40.0833 15.5833ZM53.8333 28.4167H40.0943C39.6708 28.4057 39.1667 28.2379 39.1667 27.5V19.0804C39.4545 19.184 39.7598 19.25 40.0833 19.25H53.8333V28.4167Z" fill="white"/>
<path d="M72.89 28.112C75.396 28.112 77.202 26.698 77.384 24.598H75.284C75.116 25.606 74.15 26.292 72.89 26.292C71.308 26.292 70.09 25.2 70.09 23.1C70.09 21 71.308 19.894 72.89 19.894C74.122 19.894 75.088 20.58 75.228 21.602H77.426C77.16 19.488 75.354 18.088 72.89 18.088C70.272 18.088 67.976 19.796 67.976 23.1C67.976 26.404 70.23 28.112 72.89 28.112ZM81.8553 28.112C84.0253 28.112 85.5793 26.572 85.5793 24.472C85.5793 22.372 84.0253 20.832 81.8553 20.832C79.6853 20.832 78.1313 22.372 78.1313 24.472C78.1313 26.572 79.6853 28.112 81.8553 28.112ZM81.8553 26.432C80.8053 26.432 80.0913 25.634 80.0913 24.472C80.0913 23.296 80.8053 22.498 81.8553 22.498C82.9053 22.498 83.6193 23.296 83.6193 24.472C83.6193 25.634 82.9053 26.432 81.8553 26.432ZM86.6437 28H88.6037V24.136C88.6037 23.226 89.2057 22.568 90.0597 22.568C90.8717 22.568 91.4177 23.184 91.4177 24.038V28H93.3777V23.604C93.3777 21.98 92.3417 20.832 90.7457 20.832C89.7797 20.832 88.9957 21.238 88.6037 21.924V20.944H86.6437V28ZM94.8058 28H96.7658V24.136C96.7658 23.226 97.3678 22.568 98.2218 22.568C99.0338 22.568 99.5798 23.184 99.5798 24.038V28H101.54V23.604C101.54 21.98 100.504 20.832 98.9078 20.832C97.9418 20.832 97.1578 21.238 96.7658 21.924V20.944H94.8058V28ZM107.686 25.606C107.532 26.208 107.014 26.516 106.23 26.516C105.25 26.516 104.62 25.9 104.48 24.906H109.548C109.562 24.752 109.576 24.542 109.576 24.276C109.576 22.666 108.582 20.832 106.09 20.832C103.696 20.832 102.604 22.666 102.604 24.458C102.604 26.236 103.836 28.112 106.23 28.112C107.966 28.112 109.31 27.132 109.59 25.606H107.686ZM106.09 22.26C107.028 22.26 107.574 22.89 107.63 23.674H104.508C104.676 22.694 105.208 22.26 106.09 22.26ZM113.928 28.112C115.762 28.112 117.218 26.936 117.428 25.368H115.44C115.3 25.998 114.726 26.432 114.012 26.432C112.948 26.432 112.318 25.62 112.318 24.472C112.318 23.324 112.934 22.498 113.984 22.498C114.698 22.498 115.3 22.96 115.412 23.59H117.372C117.246 21.952 115.776 20.832 113.928 20.832C111.744 20.832 110.288 22.414 110.288 24.472C110.288 26.53 111.744 28.112 113.928 28.112ZM119.19 18.858V20.944H117.832V22.568H119.19V25.438C119.19 27.076 120.24 28 121.864 28H123.026V26.362H122.13C121.5 26.362 121.136 26.04 121.136 25.354V22.568H123.026V20.944H121.136V18.858H119.19ZM129.452 28H131.496L133.442 21.476L135.388 28H137.46L140.358 18.2H138.23L136.34 24.906L134.324 18.2H132.546L130.544 24.906L128.668 18.2H126.54L129.452 28ZM143.3 20.832C141.368 20.832 140.22 21.966 140.136 23.38H141.872C141.9 22.792 142.334 22.26 143.188 22.26C143.986 22.26 144.448 22.666 144.448 23.254C144.448 23.548 144.266 23.772 143.916 23.772H142.726C141.186 23.772 140.15 24.612 140.15 25.998C140.15 27.202 141.088 28.112 142.46 28.112C143.426 28.112 144.21 27.678 144.448 27.02V28H146.38V23.464C146.38 21.868 145.078 20.832 143.3 20.832ZM142.95 26.698C142.404 26.698 142.012 26.376 142.012 25.914C142.012 25.368 142.432 25.004 143.02 25.004H144.448V25.102C144.448 25.998 143.902 26.698 142.95 26.698ZM147.828 28H149.774V17.878H147.828V28ZM151.424 28H153.37V17.878H151.424V28ZM159.625 25.606C159.471 26.208 158.953 26.516 158.169 26.516C157.189 26.516 156.559 25.9 156.419 24.906H161.487C161.501 24.752 161.515 24.542 161.515 24.276C161.515 22.666 160.521 20.832 158.029 20.832C155.635 20.832 154.543 22.666 154.543 24.458C154.543 26.236 155.775 28.112 158.169 28.112C159.905 28.112 161.249 27.132 161.529 25.606H159.625ZM158.029 22.26C158.967 22.26 159.513 22.89 159.569 23.674H156.447C156.615 22.694 157.147 22.26 158.029 22.26ZM163.364 18.858V20.944H162.006V22.568H163.364V25.438C163.364 27.076 164.414 28 166.038 28H167.2V26.362H166.304C165.674 26.362 165.31 26.04 165.31 25.354V22.568H167.2V20.944H165.31V18.858H163.364Z" fill="white"/>
</svg>
